<?xml version="1.0" standalone="no"?>
<!DOCTYPE svg PUBLIC "-//W3C//DTD SVG 20010904//EN"
 "http://www.w3.org/TR/2001/REC-SVG-20010904/DTD/svg10.dtd">
<svg version="1.0" xmlns="http://www.w3.org/2000/svg"
 width="260.000000pt" height="260.000000pt" viewBox="0 0 260.000000 260.000000"
 preserveAspectRatio="xMidYMid meet">
<metadata>
Created by potrace 1.14, written by Peter Selinger 2001-2017
</metadata>
<g transform="translate(0.000000,260.000000) scale(0.100000,-0.100000)"
fill="#000000" stroke="none">
<path d="M400 2531 c-8 -5 -31 -11 -50 -15 -34 -6 -92 -48 -151 -108 -15 -16
-32 -28 -37 -28 -6 0 -27 -33 -46 -74 l-36 -74 0 -921 c0 -602 3 -922 10 -926
6 -3 10 -15 10 -25 0 -34 46 -104 91 -138 24 -19 54 -43 67 -53 13 -11 49 -32
80 -47 l57 -27 885 -3 c662 -2 895 0 925 9 51 15 123 48 127 58 2 4 29 26 61
50 49 36 64 54 93 117 l34 74 0 915 c0 661 -3 922 -11 942 -34 82 -58 123 -74
123 -4 0 -19 12 -33 28 -56 57 -116 98 -171 114 -51 16 -129 18 -936 18 -484
-1 -887 -4 -895 -9z m1870 -153 c57 -28 63 -37 94 -128 14 -39 16 -159 16
-930 0 -922 0 -913 -41 -1005 -19 -42 -68 -84 -104 -90 -16 -3 -448 -4 -960
-3 l-930 3 -32 23 c-33 24 -51 53 -77 132 -14 39 -16 162 -16 931 0 868 0 887
21 945 11 32 23 67 26 76 5 16 88 63 128 71 11 3 425 4 920 3 l900 -1 55 -27z"/>
<path d="M1381 2039 c-7 -22 -20 -43 -29 -46 -24 -9 -58 -35 -134 -106 -37
-34 -79 -74 -95 -88 -52 -48 -143 -152 -143 -163 0 -12 -97 -116 -107 -116
-11 0 -93 -95 -93 -108 0 -7 -38 -59 -85 -115 -88 -107 -106 -120 -195 -133
-55 -8 -110 -55 -110 -93 0 -36 68 -111 99 -111 13 0 41 -5 62 -11 35 -11 40
-10 78 20 22 18 50 50 63 72 12 21 28 39 35 39 7 0 13 4 13 9 0 5 35 12 78 16
42 3 86 10 97 15 11 5 76 10 145 12 107 3 125 1 128 -13 1 -8 -8 -27 -20 -41
-45 -50 -67 -84 -105 -158 -10 -19 -23 -40 -28 -46 -6 -6 -29 -47 -50 -90 -22
-44 -48 -88 -58 -99 -18 -20 -18 -20 51 -23 59 -2 77 1 118 23 31 16 53 36 61
55 6 17 17 30 23 30 13 0 49 39 50 53 0 10 52 81 63 85 4 2 7 17 7 33 0 30 70
148 118 198 7 7 10 22 6 35 -12 40 -85 96 -125 96 -11 0 -19 7 -19 15 0 8 5
15 10 15 6 0 10 20 10 45 0 25 5 45 10 45 6 0 10 8 10 18 0 10 17 43 38 74 42
62 56 85 90 148 13 25 27 50 31 55 5 6 16 33 26 62 10 29 34 69 53 90 33 37
34 39 29 113 -2 41 -9 87 -15 103 -11 26 -13 27 -95 27 l-84 0 -12 -41z m-81
-337 c0 -10 -18 -48 -40 -85 -22 -36 -40 -68 -40 -71 0 -3 -12 -18 -28 -33
-41 -41 -95 -158 -88 -188 4 -16 13 -25 26 -25 11 0 20 -4 20 -9 0 -5 10 -11
23 -13 18 -3 14 -6 -18 -16 -22 -7 -57 -12 -78 -12 -21 0 -83 -7 -138 -17 -54
-9 -102 -13 -105 -10 -3 3 23 34 58 69 35 35 71 79 80 98 17 35 98 130 111
130 4 0 51 45 105 100 53 54 100 99 105 100 4 0 7 -8 7 -18z"/>
<path d="M1840 1283 c-54 -18 -61 -20 -80 -32 -8 -5 -33 -17 -55 -27 -22 -9
-66 -38 -98 -64 -32 -26 -78 -57 -102 -69 -75 -37 -205 -176 -205 -219 0 -21
-19 -53 -63 -107 -4 -5 -24 -37 -44 -70 -34 -55 -37 -67 -41 -151 l-4 -91 41
-47 c23 -26 41 -51 41 -56 0 -5 14 -12 32 -15 17 -4 39 -14 47 -23 20 -19 182
-11 226 12 17 9 38 16 48 16 9 0 17 4 17 8 0 5 10 14 23 20 49 24 116 52 126
52 6 0 11 4 11 8 0 4 14 13 31 19 29 11 30 14 27 60 -2 35 -7 49 -19 51 -19 4
-165 -64 -193 -90 -10 -10 -40 -20 -65 -23 -25 -4 -61 -11 -78 -15 -40 -10
-97 4 -124 31 -16 16 -19 33 -19 98 0 52 5 84 13 93 7 7 23 35 35 61 12 26 29
50 36 53 7 3 22 22 32 42 11 20 21 39 24 42 3 3 23 27 45 55 64 80 160 175
177 175 14 0 59 18 101 41 27 15 110 22 126 11 16 -11 6 -52 -13 -52 -18 0
-72 -61 -81 -90 -4 -14 -11 -27 -15 -30 -15 -11 -80 -121 -86 -147 -4 -16 -13
-36 -21 -45 -13 -15 -13 -20 4 -42 14 -19 27 -25 56 -26 34 0 45 7 98 62 32
34 59 63 59 65 0 7 55 78 63 81 4 2 7 9 7 15 0 7 14 32 30 57 16 25 30 51 30
59 0 8 9 25 21 37 15 16 23 40 26 87 5 62 4 65 -23 84 -80 55 -137 64 -224 36z"/>
</g>
</svg>
